HIERARCHY
ROOT Hips
{
	OFFSET	0.00	0.00	0.00
	CHANNELS 6 Xposition Yposition Zposition Zrotation Xrotation Yrotation
	JOINT LeftUpLeg
	{
		OFFSET	 0.126116	-0.014019	-0.065224
		CHANNELS 3 Zrotation Xrotation Yrotation
		JOINT LeftLeg
		{
			OFFSET	 0.000000	 0.000000	 0.569914
			CHANNELS 3 Zrotation Xrotation Yrotation
			JOINT LeftFoot
			{
				OFFSET	 0.000000	 0.000000	 0.544423
				CHANNELS 3 Zrotation Xrotation Yrotation
				JOINT LeftToeBase
				{
					OFFSET	 0.000000	 0.000000	 0.207117
					CHANNELS 3 Zrotation Xrotation Yrotation
					End Site
					{
						OFFSET	 0.000000	 0.000000	 0.207117
					}
				}
			}
		}
	}
	JOINT RightUpLeg
	{
		OFFSET	-0.124023	-0.008373	-0.065224
		CHANNELS 3 Zrotation Xrotation Yrotation
		JOINT RightLeg
		{
			OFFSET	 0.000000	 0.000000	 0.570047
			CHANNELS 3 Zrotation Xrotation Yrotation
			JOINT RightFoot
			{
				OFFSET	 0.000000	 0.000000	 0.544354
				CHANNELS 3 Zrotation Xrotation Yrotation
				JOINT RightToeBase
				{
					OFFSET	 0.000000	 0.000000	 0.207540
					CHANNELS 3 Zrotation Xrotation Yrotation
					End Site
					{
						OFFSET	 0.000000	 0.000000	 0.207540
					}
				}
			}
		}
	}
	JOINT Spine
	{
		OFFSET	 0.000184	-0.007763	 0.117403
		CHANNELS 3 Zrotation Xrotation Yrotation
		JOINT Spine1
		{
			OFFSET	 0.000000	 0.000000	 0.137269
			CHANNELS 3 Zrotation Xrotation Yrotation
			JOINT Spine2
			{
				OFFSET	 0.000000	 0.000000	 0.156879
				CHANNELS 3 Zrotation Xrotation Yrotation
				JOINT LeftShoulder
				{
					OFFSET	 0.080501	-0.002496	 0.160144
					CHANNELS 3 Zrotation Xrotation Yrotation
					JOINT LeftArm
					{
						OFFSET	 0.000000	 0.000000	 0.164363
						CHANNELS 3 Zrotation Xrotation Yrotation
						JOINT LeftForeArm
						{
							OFFSET	 0.000000	 0.000000	 0.364576
							CHANNELS 3 Zrotation Xrotation Yrotation
							JOINT LeftHand
							{
								OFFSET	 0.000000	 0.000000	 0.360812
								CHANNELS 3 Zrotation Xrotation Yrotation
								JOINT LeftHandIndex1
								{
									OFFSET	 0.000000	 0.000000	 0.086006
									CHANNELS 3 Zrotation Xrotation Yrotation
									JOINT LeftHandIndex2
									{
										OFFSET	 0.000000	 0.000000	 0.047237
										CHANNELS 3 Zrotation Xrotation Yrotation
										JOINT LeftHandIndex3
										{
											OFFSET	-0.004284	-0.000551	 0.038165
											CHANNELS 3 Zrotation Xrotation Yrotation
											End Site
											{
												OFFSET	-0.004284	-0.000551	 0.038165
											}
										}
									}
								}
							}
						}
					}
				}
				JOINT Neck
				{
					OFFSET	 0.000000	 0.000000	 0.176489
					CHANNELS 3 Zrotation Xrotation Yrotation
					JOINT Head
					{
						OFFSET	 0.000000	-0.001747	 0.077940
						CHANNELS 3 Zrotation Xrotation Yrotation
						End Site
						{
							OFFSET	 0.000000	-0.001747	 0.077940
						}
					}
				}
				JOINT RightShoulder
				{
					OFFSET	-0.080363	 0.000306	 0.159706
					CHANNELS 3 Zrotation Xrotation Yrotation
					JOINT RightArm
					{
						OFFSET	 0.000000	 0.000000	 0.164196
						CHANNELS 3 Zrotation Xrotation Yrotation
						JOINT RightForeArm
						{
							OFFSET	 0.000000	 0.000000	 0.365611
							CHANNELS 3 Zrotation Xrotation Yrotation
							JOINT RightHand
							{
								OFFSET	 0.000000	 0.000000	 0.360648
								CHANNELS 3 Zrotation Xrotation Yrotation
								JOINT RightHandIndex1
								{
									OFFSET	 0.000000	 0.000000	 0.069977
									CHANNELS 3 Zrotation Xrotation Yrotation
									JOINT RightHandIndex2
									{
										OFFSET	 0.000000	 0.000000	 0.052305
										CHANNELS 3 Zrotation Xrotation Yrotation
										JOINT RightHandIndex3
										{
											OFFSET	 0.009002	-0.000782	 0.042196
											CHANNELS 3 Zrotation Xrotation Yrotation
											End Site
											{
												OFFSET	 0.009002	-0.000782	 0.042196
											}
										}
									}
								}
							}
						}
					}
				}
			}
		}
	}
}
MOTION
Frames:    12
Frame Time: 0.03333334
-0.451081	-0.033185	 1.271944	-179.883300	-3.914229	 2.571796	 22.744600	-2.044734	 173.259800	-8.534676	-16.754270	-2.642481	-1.904535	 73.346890	-6.919308	-2.385833	 28.452760	 0.000004	 15.368860	 1.481009	 177.130000	 2.938288	-12.057780	 0.295776	 8.652561	 68.682250	 5.711453	 2.384659	 28.388700	-0.000001	-2.866633	 9.217941	-3.436577	-0.584396	 1.580672	-4.198730	 3.419642	-3.791087	 7.795082	-91.776190	 78.527380	-180.000000	-57.470730	 7.059578	 4.787999	-0.084225	-2.178271	-48.965730	-0.409416	-12.931300	-1.974526	-4.130319	 21.525730	 0.991547	-5.167930	 0.731704	 3.519349	-1.378229	 35.397820	-2.634230	-2.955620	 0.911828	 1.881894	-13.785280	-27.966860	-14.362990	 89.782040	 78.203890	-180.000000	 18.748460	-5.427029	-6.787656	-13.928130	-8.981342	 48.558790	-6.027855	 52.407620	 113.064900	 5.716227	 19.173190	-3.685159	 5.027444	 0.246877	-9.377972	-2.350882	 35.473990	 5.254307
-0.451505	-0.033540	 1.270746	-179.597600	-3.915948	 2.916034	 23.651960	-4.182611	 172.802600	-9.597252	-21.030450	-3.679217	-2.542761	 75.686090	-5.531209	-2.385833	 28.452760	 0.000004	 14.513020	-0.518737	 177.424600	 3.521770	-16.334250	 0.562439	 7.752345	 70.518590	 6.124887	 2.384659	 28.388700	-0.000001	-3.618594	 9.127183	-3.679773	-0.823822	 2.382272	-4.833057	 3.367485	-4.683699	 8.389565	-91.776190	 78.527400	-180.000000	-58.354780	 12.170620	 14.100040	-1.065778	-2.122040	-66.802710	-0.696292	-12.461060	-2.111068	-4.130319	 21.525730	 0.991547	-5.167930	 0.731704	 3.519349	-1.378229	 35.397820	-2.634230	-3.161714	 1.207690	 2.243845	-14.353060	-28.895630	-15.867270	 89.782130	 78.203870	 180.000000	 21.822530	-2.361107	-12.583680	-10.602490	-10.852070	 67.308990	 5.094923	 56.482680	 99.473540	 5.716227	 19.173190	-3.685159	 5.027444	 0.246877	-9.377972	-2.350882	 35.473990	 5.254307
-0.452441	-0.034730	 1.266994	-178.943500	-3.511346	 2.796490	 21.409590	-7.856762	 173.294100	-10.392510	-29.945780	-5.518484	-13.057710	 81.112190	 5.180631	-2.385833	 28.452760	 0.000004	 13.023030	-5.002880	 179.470100	 3.912783	-25.632670	 1.034458	 15.102370	 75.163750	-2.031584	 2.384659	 28.388700	-0.000001	-6.091709	 8.727862	-3.334741	-1.733209	 2.941901	-5.493264	 3.432752	-4.546276	 8.836798	-91.776210	 78.527400	-180.000000	-42.732550	 26.989210	 23.985790	-2.227710	-1.909536	-97.943940	-0.519672	-12.635600	-2.108258	-4.130319	 21.525730	 0.991547	-5.167930	 0.731704	 3.519349	-1.378229	 35.397820	-2.634230	-3.084460	 0.848787	 2.094112	-14.164180	-28.168150	-15.707130	 89.782130	 78.203900	 180.000000	 22.580010	 10.346160	-16.875230	-3.872401	-9.554364	 103.442900	 36.786990	 48.275660	 42.552710	 5.716227	 19.173190	-3.685159	 5.027444	 0.246877	-9.377972	-2.350882	 35.473990	 5.254307
-0.455181	-0.037483	 1.259152	-177.534800	-3.054371	 2.492818	 17.561820	-12.260850	 174.300300	-12.422200	-42.701420	-8.887130	-97.342060	 85.798770	 89.772030	-2.385833	 28.452760	 0.000004	 10.931780	-10.447320	-176.138300	 4.917820	-37.532690	 2.069912	 36.527590	 79.282140	-25.167490	 2.384659	 28.388700	-0.000001	-10.931450	 7.830580	-3.193773	-3.602530	 5.120055	-5.315796	 3.275584	-4.922187	 8.876122	-91.776240	 78.527420	-180.000000	 21.908220	 51.454220	-40.476180	-1.918189	-0.778434	-88.736470	-0.554140	-12.392140	-2.123059	-4.130319	 21.525730	 0.991547	-5.167930	 0.731704	 3.519349	-1.378229	 35.397820	-2.634230	-3.085788	-0.332814	 0.167084	-13.580260	-26.426880	-11.283150	 89.782100	 78.203890	 180.000000	-26.775270	 49.326480	 46.594120	-3.012603	-7.871479	 112.435000	 10.712190	 19.476180	-3.286813	 5.716227	 19.173190	-3.685159	 5.027444	 0.246877	-9.377972	-2.350882	 35.473990	 5.254307
-0.465014	-0.040935	 1.255120	-175.940800	-2.905355	 2.704461	 13.366580	-13.403090	 175.216400	-12.689210	-47.129520	-9.791768	-125.550200	 83.311910	 117.777200	-2.385833	 28.452760	 0.000004	 7.439493	-12.466430	-173.679100	 6.012800	-41.363090	 2.970633	 36.981760	 77.486980	-27.098680	 2.384659	 28.388700	-0.000001	-15.373710	 6.915002	-3.994126	-4.259564	 7.119899	-3.621046	 3.130492	-5.913307	 8.440645	-91.776180	 78.527400	 180.000000	 53.890530	 43.787720	-91.366220	-2.527848	 1.012139	-57.245040	-0.653691	-11.773630	-2.148798	-4.130319	 21.525730	 0.991547	-5.167930	 0.731704	 3.519349	-1.378229	 35.397820	-2.634230	-4.102480	 2.347700	 2.526387	-14.883890	-28.229840	-16.488010	 89.782100	 78.203830	-180.000000	-64.408840	 39.978980	 99.878070	-7.860798	-6.125635	 76.496550	-11.591360	 2.027249	 1.578607	 5.716227	 19.173190	-3.685159	 5.027444	 0.246877	-9.377972	-2.350882	 35.473990	 5.254307
-0.471046	-0.042357	 1.255372	-175.158600	-2.646770	 2.906360	 11.838180	-13.304080	 175.572100	-11.930400	-46.151840	-9.103761	-117.961700	 83.713560	 110.022000	-2.385833	 28.452760	 0.000004	 5.789913	-12.804730	-173.664700	 6.516212	-40.976040	 3.279225	 29.586930	 76.463970	-19.827330	 2.384659	 28.388700	-0.000001	-16.845440	 6.745321	-3.997277	-3.738549	 6.233299	-3.419937	 2.956159	-4.959681	 8.280489	-91.776290	 78.527360	-179.999900	 59.833280	 40.918510	-91.535710	-2.470780	 1.949031	-72.717170	-0.587309	-11.599140	-2.154333	-4.130319	 21.525730	 0.991547	-5.167930	 0.731704	 3.519349	-1.378229	 35.397820	-2.634230	-4.075132	 1.657729	 1.974270	-14.557570	-27.065680	-14.926970	 89.782050	 78.203890	-180.000000	-65.890630	 39.424160	 98.966160	-7.708166	-5.220955	 76.662730	-12.859940	-0.446916	 1.873068	 5.716227	 19.173190	-3.685159	 5.027444	 0.246877	-9.377972	-2.350882	 35.473990	 5.254307
-0.482160	-0.043557	 1.254099	-173.611400	-2.182716	 2.401987	 8.686208	-12.581030	 177.531700	-10.575280	-44.756510	-7.891294	-112.167500	 84.351590	 103.579200	-2.385833	 28.452760	 0.000004	 6.014874	-15.609110	-171.621600	 6.106768	-45.167740	 3.254376	 32.433610	 75.947360	-22.688800	 2.384659	 28.388700	-0.000001	-19.921130	 6.603974	-3.366101	-2.239488	 3.121601	-1.558987	 2.431037	-2.437938	 6.967831	-91.776090	 78.527380	 179.999900	 39.912590	 51.640910	-86.100150	-2.040722	 4.184632	-86.794350	-0.452866	-11.138720	-2.176812	-4.130319	 21.525730	 0.991547	-5.167930	 0.731704	 3.519349	-1.378229	 35.397820	-2.634230	-4.053860	-0.318375	 0.615834	-13.916460	-24.357340	-11.189000	 89.782030	 78.203850	-179.999900	-64.086560	 42.191590	 88.178630	-8.270215	-2.481641	 58.730950	-9.027882	-12.040350	 27.300380	 5.716227	 19.173190	-3.685159	 5.027444	 0.246877	-9.377972	-2.350882	 35.473990	 5.254307
-0.487803	-0.043973	 1.254259	-172.590200	-2.432371	 2.580945	 5.814641	-11.443260	 178.117400	-9.578502	-43.820710	-7.059227	-111.170100	 84.742490	 101.944900	-2.385833	 28.452760	 0.000004	 7.914628	-17.688120	-170.640300	 4.940736	-48.590770	 2.564900	 43.357970	 76.573170	-33.469870	 2.384659	 28.388700	-0.000001	-21.874990	 7.113438	-4.064815	-0.526676	 2.538808	 1.010439	 2.320458	-2.393531	 5.838795	-91.776180	 78.527400	-180.000000	 25.030120	 55.025310	-65.519420	-0.553523	 6.151728	-100.998400	-0.440348	-10.560320	-2.208063	-4.130319	 21.525730	 0.991547	-5.167930	 0.731704	 3.519349	-1.378229	 35.397820	-2.634230	-4.326276	 0.387419	 1.416127	-14.253930	-24.991460	-12.797920	 89.782120	 78.203920	 180.000000	-53.339850	 45.364350	 72.905490	-6.989917	-0.134301	 60.570370	-1.866338	-10.819220	 35.304810	 5.716227	 19.173190	-3.685159	 5.027444	 0.246877	-9.377972	-2.350882	 35.473990	 5.254307
-0.483837	-0.042344	 1.257760	-171.722400	-2.315434	 3.167184	 2.348225	-10.404740	 177.945700	-8.280913	-42.360300	-5.983796	-91.674150	 84.719250	 81.942790	-2.385833	 28.452760	 0.000004	 9.549238	-20.146410	-170.401200	 3.970317	-46.335620	 1.771133	 40.631020	 75.854500	-29.951040	 2.384659	 28.388700	-0.000001	-22.943610	 7.388321	-4.879690	 2.531793	 2.981644	 2.934129	 2.232044	-3.238829	 5.081248	-91.776210	 78.527380	-180.000000	 27.874570	 52.399010	-53.961570	 2.035011	 8.115731	-114.486600	-0.394604	-9.813052	-2.248227	-4.130319	 21.525730	 0.991547	-5.167930	 0.731704	 3.519349	-1.378229	 35.397820	-2.634230	-4.630690	 0.828598	 2.089200	-14.634620	-25.784200	-14.005520	 89.782050	 78.203870	-180.000000	-40.524720	 47.337490	 56.275890	-6.480488	 2.388225	 76.462620	 2.694020	-8.571468	 26.823810	 5.716227	 19.173190	-3.685159	 5.027444	 0.246877	-9.377972	-2.350882	 35.473990	 5.254307
-0.472144	-0.037174	 1.262176	-171.162400	-1.872641	 3.039516	-0.279655	-9.865221	 177.998600	-7.148087	-41.007740	-5.076114	-77.162470	 84.684040	 66.712140	-2.385833	 28.452760	 0.000004	 12.580350	-21.090250	-170.488200	 1.858509	-40.350560	 0.217469	 35.281900	 72.981190	-23.116840	 2.384659	 28.388700	-0.000001	-23.084920	 7.141405	-5.995474	 5.323255	 4.231762	 5.517079	 2.048354	-4.303577	 3.814090	-91.776180	 78.527360	-180.000000	 30.947500	 51.217130	-57.002980	 2.852663	 10.113820	-113.838800	-0.394489	-9.399508	-2.269677	-4.130319	 21.525730	 0.991547	-5.167930	 0.731704	 3.519349	-1.378229	 35.397820	-2.634230	-4.787868	-0.035597	 1.859135	-14.641160	-25.490020	-12.997740	 89.782090	 78.203870	 180.000000	-36.757270	 47.811740	 51.892690	-6.615259	 4.228866	 81.513400	 4.283723	-12.570710	 21.672410	 5.716227	 19.173190	-3.685159	 5.027444	 0.246877	-9.377972	-2.350882	 35.473990	 5.254307
-0.453951	-0.027001	 1.266079	-170.430300	-1.589576	 3.389078	-3.860485	-9.345098	 177.117100	-5.850450	-40.420560	-4.167495	-72.009540	 83.530100	 60.977120	-2.385833	 28.452760	 0.000004	 18.445920	-20.959500	-171.670600	-2.034737	-34.909280	-2.037577	 36.523090	 71.220370	-21.134540	 2.384659	 28.388700	-0.000001	-22.869620	 6.928731	-7.311349	 8.306686	 5.941210	 6.356076	 1.888813	-5.668189	 3.664974	-91.776210	 78.527360	-180.000000	 31.939110	 50.450510	-58.120630	 3.188630	 12.250250	-111.302300	-0.441588	-8.914289	-2.290332	-4.130319	 21.525730	 0.991547	-5.167930	 0.731704	 3.519349	-1.378229	 35.397820	-2.634230	-5.229211	-0.901500	 2.395726	-14.864630	-25.164180	-13.086060	 89.782070	 78.203850	-180.000000	-34.956370	 47.526040	 49.088520	-6.853224	 6.076006	 84.573310	 4.287102	-18.491800	 17.074330	 5.716227	 19.173190	-3.685159	 5.027444	 0.246877	-9.377972	-2.350882	 35.473990	 5.254307
-0.438385	-0.016984	 1.267918	-169.928400	-1.646579	 3.630396	-7.744274	-8.489061	 176.585100	-4.453298	-40.118080	-3.236151	-69.839110	 82.817170	 57.955300	-2.385833	 28.452760	 0.000004	 20.017990	-21.336260	-173.069200	-3.308024	-33.766600	-2.689347	 34.584720	 69.675850	-18.207670	 2.384659	 28.388700	-0.000001	-22.364760	 6.814969	-8.361416	 10.437440	 7.125656	 7.469526	 1.650629	-6.672469	 3.236171	-91.776180	 78.527330	 180.000000	 33.032730	 49.887140	-59.096260	 3.482080	 13.451200	-110.540400	-0.376669	-8.484197	-2.313993	-4.130319	 21.525730	 0.991547	-5.167930	 0.731704	 3.519349	-1.378229	 35.397820	-2.634230	-5.521720	-1.353114	 2.298159	-15.045380	-25.487080	-12.283640	 89.782110	 78.203850	 180.000000	-34.920870	 46.988160	 47.940150	-6.907823	 7.831254	 85.916080	 4.762305	-23.910290	 14.599760	 5.716227	 19.173190	-3.685159	 5.027444	 0.246877	-9.377972	-2.350882	 35.473990	 5.254307
